<?xml version="1.0" encoding="UTF-8" standalone="no"?>
<svg
   width="24"
   height="24"
   viewBox="0 0 24 24"
   fill="none"
   stroke="currentColor"
   stroke-width="2"
   stroke-linecap="round"
   stroke-linejoin="round"
   class="icon icon-tabler icons-tabler-outline icon-tabler-file-type-docx"
   version="1.1"
   id="svg8"
   sodipodi:docname="AINB2.svg"
   inkscape:version="1.3.2 (091e20e, 2023-11-25)"
   xmlns:inkscape="http://www.inkscape.org/namespaces/inkscape"
   xmlns:sodipodi="http://sodipodi.sourceforge.net/DTD/sodipodi-0.dtd"
   xmlns="http://www.w3.org/2000/svg"
   xmlns:svg="http://www.w3.org/2000/svg">
  <defs
     id="defs8" />
  <sodipodi:namedview
     id="namedview8"
     pagecolor="#ffffff"
     bordercolor="#000000"
     borderopacity="0.25"
     inkscape:showpageshadow="2"
     inkscape:pageopacity="0.0"
     inkscape:pagecheckerboard="0"
     inkscape:deskcolor="#d1d1d1"
     showguides="true"
     inkscape:zoom="9.7249863"
     inkscape:cx="4.0102884"
     inkscape:cy="10.899758"
     inkscape:window-width="1496"
     inkscape:window-height="835"
     inkscape:window-x="10"
     inkscape:window-y="78"
     inkscape:window-maximized="0"
     inkscape:current-layer="svg8">
    <sodipodi:guide
       position="20.601467,1.6381307"
       orientation="0,-1"
       id="guide8"
       inkscape:locked="false" />
  </sodipodi:namedview>
  <path
     stroke="none"
     d="M0 0h24v24H0z"
     fill="none"
     id="path1" />
  <path
     d="M14 3v4a1 1 0 0 0 1 1h4"
     id="path2" />
  <path
     d="M5 12v-7a2 2 0 0 1 2 -2h7l5 5v4"
     id="path3" />
  <path
     d="m 2.4415737,21.358909 v -4.044004 a 1.8498182,2.0220017 0 1 1 3.6996364,0 v 4.044004"
     id="path7"
     style="stroke-width:1.93399" />
  <path
     d="M 2.6431494,19.325906 H 5.9979068"
     id="path8"
     style="stroke-width:1.8316" />
  <path
     d="m 9.3094435,15.311533 v 6"
     id="path9" />
  <path
     d="m 12.530206,21.329177 v -6 l 3,6 v -6"
     id="path6" />
  <path
     d="m 18.558718,21.318764 h 1.5 a 1.5,1.5 0 0 0 0,-3 h -1.5 1.5 a 1.5,1.5 0 0 0 0,-3 h -1.5 z"
     id="path5" />
</svg>
